<svg xmlns="http://www.w3.org/2000/svg" xmlns:xlink="http://www.w3.org/1999/xlink" id="Camada_1" x="0px" y="0px" viewBox="0 0 300 138" style="enable-background:new 0 0 300 138;" xml:space="preserve">
<g>
	<g>
		<g id="XMLID_00000075160863047281048770000001146511318374258336_">
			<linearGradient id="XMLID_00000167377291198283600130000014887939206555590069_" gradientUnits="userSpaceOnUse" x1="-91.8365" y1="16.0897" x2="-91.8365" y2="-9.6169" gradientTransform="matrix(0.7133 -0.7008 0.7008 0.7133 82.8469 -13.8987)">
				<stop offset="0" style="stop-color:#C2DCA8"></stop>
				<stop offset="1" style="stop-color:#A5CD85"></stop>
			</linearGradient>
			<path style="fill:url(#XMLID_00000167377291198283600130000014887939206555590069_);" d="M22.8,41.1c-1.7-2.6-3.6-5-5.9-7.3l-0.7-0.7l-9.8,9.6c-3.5,3.4-3.6,9.1-0.1,12.6l12.3,12.5C25.7,60.6,27.1,49.8,22.8,41.1z"></path>
			<path style="fill:#0B505C;" d="M30.3,68.9l0-1.7c0.1-9.4-2.6-18.3-7.6-26c0.4,0.8,7.2,14.8-4.2,26.7l10.6,10.8C29.9,75.5,30.3,72.2,30.3,68.9z"></path>
			<linearGradient id="XMLID_00000177466528698850083120000016710071427830014097_" gradientUnits="userSpaceOnUse" x1="-129.6326" y1="24.6359" x2="-103.1676" y2="24.6359" gradientTransform="matrix(0.7133 -0.7008 0.7008 0.7133 82.8469 -13.8987)">
				<stop offset="0" style="stop-color:#18959A"></stop>
				<stop offset="0.9964" style="stop-color:#027085"></stop>
			</linearGradient>
			<path style="fill:url(#XMLID_00000177466528698850083120000016710071427830014097_);" d="M16.3,101.9c6.6-6.4,11-14.5,12.9-23.2L18.6,67.9L6.1,80.2c-3.5,3.4-3.6,9.1-0.1,12.6l9.6,9.8L16.3,101.9z"></path>
			<linearGradient id="XMLID_00000051370309472761535400000004544260463235350443_" gradientUnits="userSpaceOnUse" x1="-94.9809" y1="75.3684" x2="-94.9809" y2="43.7332" gradientTransform="matrix(0.7133 -0.7008 0.7008 0.7133 82.8469 -13.8987)">
				<stop offset="0" style="stop-color:#177AA7"></stop>
				<stop offset="1" style="stop-color:#464D8C"></stop>
			</linearGradient>
			<path style="fill:url(#XMLID_00000051370309472761535400000004544260463235350443_);" d="M48.5,118.1c3.8,4.7,8.1,9.2,13,13.3l1.5,1.3L84.8,115c7.8-6.3,7.9-16.7,0.2-23.1L57.8,69C41.8,82.3,38.8,102.1,48.5,118.1z"></path>
			<path style="fill:#074873;" d="M31.6,67.2l0,3.2C31.4,87.5,37.3,104,48.4,118c-0.9-1.4-16-27.2,9.3-49L34.1,49.1C32.5,55,31.7,61,31.6,67.2z"></path>
			<linearGradient id="XMLID_00000037667044116959183520000007787937734092787855_" gradientUnits="userSpaceOnUse" x1="-78.9288" y1="22.6234" x2="-23.8234" y2="22.6234" gradientTransform="matrix(0.7133 -0.7008 0.7008 0.7133 82.8469 -13.8987)">
				<stop offset="0" style="stop-color:#8ACAD7"></stop>
				<stop offset="1" style="stop-color:#0895AF"></stop>
			</linearGradient>
			<path style="fill:url(#XMLID_00000037667044116959183520000007787937734092787855_);" d="M62.9,6.6C48.3,18.4,38.5,33.1,34.2,49.2L57.8,69l27.9-22.6c7.8-6.3,7.9-16.7,0.3-23.1l-21.4-18L62.9,6.6z"></path>
		</g>
	</g>
	<g>
		<path style="fill:#575756;" d="M111.4,34.9v17.5h-1.7V34.9H111.4z"></path>
		<path style="fill:#575756;" d="M128.7,52.3V34.9h2c1,3.4,3.5,12.7,3.8,14.2h0c-0.1-2.4-0.1-4.9-0.1-7.7v-6.5h1.6v17.5h-1.9c-1-3.6-3.6-13.2-3.9-14.7h0c0.1,2.1,0.2,5,0.2,8.1v6.6H128.7z"></path>
		<path style="fill:#575756;" d="M154.1,47.5v1c0,1.7,0.6,2.6,1.9,2.6c1.3,0,1.8-0.9,1.8-3c0-2.1-0.5-2.9-2.3-4.3c-1.9-1.5-2.8-2.3-2.8-4.9c0-2.2,0.7-4.3,3.3-4.2c2.5,0,3.2,1.6,3.2,3.9v0.8h-1.7v-0.7c0-1.5-0.3-2.5-1.6-2.5c-1.3,0-1.6,1.1-1.6,2.5c0,1.7,0.3,2.3,2,3.6c2.4,1.8,3.1,2.8,3.1,5.7c0,2.4-0.7,4.7-3.5,4.7c-2.7,0-3.5-1.8-3.5-4.1v-1H154.1z"></path>
		<path style="fill:#575756;" d="M177.7,36.4h-2.8v-1.5h7.3v1.5h-2.8v15.9h-1.7V36.4z"></path>
		<path style="fill:#575756;" d="M199.7,34.9v17.5h-1.7V34.9H199.7z"></path>
		<path style="fill:#575756;" d="M218.6,36.4h-2.8v-1.5h7.3v1.5h-2.8v15.9h-1.7V36.4z"></path>
		<path style="fill:#575756;" d="M240.5,34.9v13.6c0,1.5,0.5,2.5,1.9,2.5c1.4,0,1.9-1,1.9-2.5V34.9h1.7v13.6c0,2.7-1.2,4.1-3.6,4.1c-2.3,0-3.5-1.3-3.5-4V34.9H240.5z"></path>
		<path style="fill:#575756;" d="M264.6,36.4h-2.8v-1.5h7.3v1.5h-2.8v15.9h-1.7V36.4z"></path>
		<path style="fill:#575756;" d="M291.9,39.1V48c0,3-1.2,4.5-3.7,4.5c-2.7,0-3.6-1.7-3.6-4.5v-9c0-2.9,1.3-4.4,3.7-4.4C290.8,34.6,291.9,36.4,291.9,39.1z M286.3,39v9.1c0,2.1,0.8,2.9,2,2.9c1.3,0,2-0.8,2-3v-9c0-2-0.7-2.9-2-2.9C286.9,36.1,286.3,37,286.3,39z"></path>
	</g>
	<g>
		<linearGradient id="SVGID_1_" gradientUnits="userSpaceOnUse" x1="119.3975" y1="120.7353" x2="119.3975" y2="55.7478">
			<stop offset="0" style="stop-color:#177AA7"></stop>
			<stop offset="1" style="stop-color:#464D8C"></stop>
		</linearGradient>
		<path style="fill:url(#SVGID_1_);" d="M133.8,100.9v2.5c0,7.2-1.2,17.3-14.6,17.3c-11.7,0-14.2-7.3-14.2-16.9V72c0-9.7,4.4-16.2,14.3-16.2c11.8,0,14.1,7.8,14.1,16.6v2.8h-9.8v-4c0-4.2-1-6.6-4.4-6.6c-3.3,0-4.4,2.3-4.4,6.6v33.4c0,4.1,0.8,7.3,4.5,7.3c3.5,0,4.4-2.8,4.4-7.5v-3.5H133.8z"></path>
		<linearGradient id="SVGID_00000028286211895911973240000004502689687147345067_" gradientUnits="userSpaceOnUse" x1="151.922" y1="119.8126" x2="151.922" y2="56.6704">
			<stop offset="0" style="stop-color:#177AA7"></stop>
			<stop offset="1" style="stop-color:#464D8C"></stop>
		</linearGradient>
		<path style="fill:url(#SVGID_00000028286211895911973240000004502689687147345067_);" d="M146.8,102.9l-2.2,16.9h-9.9l10.2-63.1h13.8l10.6,63.1H159l-2.5-16.9H146.8z M155.4,94c-1.4-10.7-2.8-20.9-3.5-28h-0.4c-0.3,5.2-2.2,18.7-3.4,28H155.4z"></path>
		<linearGradient id="SVGID_00000131368752127323153840000007987599297483830193_" gradientUnits="userSpaceOnUse" x1="184.8041" y1="120.7353" x2="184.8041" y2="55.6646">
			<stop offset="0" style="stop-color:#177AA7"></stop>
			<stop offset="1" style="stop-color:#464D8C"></stop>
		</linearGradient>
		<path style="fill:url(#SVGID_00000131368752127323153840000007987599297483830193_);" d="M179.8,101.2v3.9c0,4.7,1.4,7.3,5.1,7.3c3.8,0,4.8-3.6,4.8-7.7c0-6.8-1.5-8.9-8.2-14.2c-6.8-5.4-10.4-8.8-10.4-18.1c0-8.3,2.5-16.7,13.9-16.7c11.7,0,13.5,8.3,13.5,15.2v3.4h-9.7v-3.1c0-4.4-0.7-7.1-4-7.1c-3.2,0-4,2.8-4,6.9c0,4.5,0.8,6.6,6.4,10.7c9.4,7,12.3,11,12.3,21.6c0,9-3.1,17.4-14.9,17.4c-11.7,0-14.5-7.4-14.5-15.8v-3.7H179.8z"></path>
		<linearGradient id="SVGID_00000170255318112869745360000002903187909284190651_" gradientUnits="userSpaceOnUse" x1="215.8651" y1="119.8126" x2="215.8651" y2="56.6704">
			<stop offset="0" style="stop-color:#177AA7"></stop>
			<stop offset="1" style="stop-color:#464D8C"></stop>
		</linearGradient>
		<path style="fill:url(#SVGID_00000170255318112869745360000002903187909284190651_);" d="M211,65.7h-10.1v-9h30.1v9h-10.2v54.1H211V65.7z"></path>
		<linearGradient id="SVGID_00000178890821091813295130000014904255343536244916_" gradientUnits="userSpaceOnUse" x1="248.4188" y1="119.8126" x2="248.4188" y2="56.6704">
			<stop offset="0" style="stop-color:#177AA7"></stop>
			<stop offset="1" style="stop-color:#464D8C"></stop>
		</linearGradient>
		<path style="fill:url(#SVGID_00000178890821091813295130000014904255343536244916_);" d="M243.8,91.6v28.2H234V56.7h13.5c9.6,0,15.3,3.8,15.3,15.2v2.4c0,9.7-4,12.2-6.4,13.2c3.7,1.7,5.8,4.4,5.8,12.9c0,5.3-0.1,15.6,0.6,19.4h-9.4c-0.8-3.8-0.7-14.2-0.7-18.8c0-7.7-1-9.5-6.6-9.5H243.8z M243.8,83.5h2.2c5.2,0,7-1.9,7-8.8v-2.2c0-4.9-1-7.9-6.5-7.9h-2.8V83.5z"></path>
		<linearGradient id="SVGID_00000023265342215210185490000008249568291475028671_" gradientUnits="userSpaceOnUse" x1="281.248" y1="120.7353" x2="281.248" y2="55.7478">
			<stop offset="0" style="stop-color:#177AA7"></stop>
			<stop offset="1" style="stop-color:#464D8C"></stop>
		</linearGradient>
		<path style="fill:url(#SVGID_00000023265342215210185490000008249568291475028671_);" d="M296.6,73.4v29.5c0,12.1-5.1,17.8-15.8,17.8c-10.3,0-14.9-5.9-14.9-17.7V73.4c0-12.1,6.1-17.6,15.5-17.6C291,55.7,296.6,61.3,296.6,73.4z M275.8,72.5v31.8c0,5.2,1.9,7.7,5.4,7.7c3.8,0,5.5-2.3,5.5-7.9V72.4c0-5-1.5-7.8-5.5-7.8C277.7,64.6,275.8,67.1,275.8,72.5z"></path>
	</g>
</g>
</svg>
